<svg width="411" height="74" viewBox="0 0 411 74" fill="none" xmlns="http://www.w3.org/2000/svg">
<path d="M13.1 74H21.9C23.5 74 25.1 73.9 26.7 73.7C28.3 73.5 29.7 73.1 30.9 72.4C32.1 71.7 33 70.7 33.8 69.3C34.5 68 34.9 66.2 34.9 64V45.3H19.6V60.3C19.6 60.7 19.5 61.1 19.4 61.5C19.2 61.9 18.9 62.1 18.4 62.1H16.6C16 62.1 15.7 61.9 15.6 61.5C15.4 61.1 15.4 60.7 15.4 60.3V14.6C15.4 14.2 15.4 13.8 15.6 13.4C15.7 13 16 12.8 16.6 12.8H18.4C18.9 12.8 19.2 13 19.4 13.4C19.5 13.8 19.6 14.2 19.6 14.6V29.6H34.9V10.9C34.9 8.69999 34.5 7 33.8 5.7C33 4.4 32.1 3.4 30.9 2.69999C29.7 2 28.3 1.5 26.7 1.29999C25.1 1.1 23.5 0.899999 21.9 0.899999H13.1C11.4 0.899999 9.8 1.1 8.2 1.29999C6.6 1.5 5.3 2 4.1 2.69999C2.9 3.4 1.9 4.4 1.2 5.7C0.4 7 0.1 8.69999 0.1 10.9V64C0.1 66.2 0.4 68 1.2 69.3C1.9 70.7 2.9 71.7 4.1 72.4C5.3 73.1 6.6 73.5 8.2 73.7C9.8 73.9 11.4 74 13.1 74ZM54.3648 14.6V60.3C54.3648 60.7 54.3648 61.1 54.5648 61.5C54.6648 61.9 54.9648 62.1 55.5648 62.1H57.3648C57.8648 62.1 58.1648 61.9 58.3648 61.5C58.4648 61.1 58.5648 60.7 58.5648 60.3V14.6C58.5648 14.2 58.4648 13.8 58.3648 13.4C58.1648 13 57.8648 12.8 57.3648 12.8H55.5648C54.9648 12.8 54.6648 13 54.5648 13.4C54.3648 13.8 54.3648 14.2 54.3648 14.6ZM60.8648 74H52.0648C50.3648 74 48.7648 73.9 47.1648 73.7C45.5648 73.5 44.2648 73.1 43.0648 72.4C41.8648 71.7 40.8648 70.7 40.1648 69.3C39.3648 68 39.0648 66.2 39.0648 64V10.9C39.0648 8.69999 39.3648 7 40.1648 5.7C40.8648 4.4 41.8648 3.4 43.0648 2.69999C44.2648 2 45.5648 1.5 47.1648 1.29999C48.7648 1.1 50.3648 0.899999 52.0648 0.899999H60.8648C62.4648 0.899999 64.0648 1.1 65.6648 1.29999C67.2648 1.5 68.6648 2 69.8648 2.69999C71.0648 3.4 71.9648 4.4 72.7648 5.7C73.4648 7 73.8648 8.69999 73.8648 10.9V64C73.8648 66.2 73.4648 68 72.7648 69.3C71.9648 70.7 71.0648 71.7 69.8648 72.4C68.6648 73.1 67.2648 73.5 65.6648 73.7C64.0648 73.9 62.4648 74 60.8648 74ZM78.0297 0.899999H99.4297L103.13 35.2L106.83 0.899999H128.13V74H113.43V31L107.53 74H98.7297L92.8297 31V74H78.0297V0.899999ZM132.327 74V0.899999H147.627V74H132.327ZM151.858 0.899999H171.058L176.358 37.2V0.899999H191.258V74H172.558L166.758 37.8V74H151.858V0.899999ZM213.013 46.2V34.3H230.213V74H208.413C206.713 74 205.113 73.9 203.513 73.7C201.913 73.5 200.613 73.1 199.413 72.4C198.213 71.7 197.213 70.7 196.513 69.3C195.713 68 195.413 66.2 195.413 64V10.9C195.413 8.69999 195.713 7 196.513 5.7C197.213 4.4 198.213 3.4 199.413 2.69999C200.613 2 201.913 1.5 203.513 1.29999C205.113 1.1 206.713 0.899999 208.413 0.899999H217.213C218.813 0.899999 220.413 1.1 222.013 1.29999C223.613 1.5 225.013 2 226.213 2.69999C227.413 3.4 228.313 4.4 229.113 5.7C229.813 7 230.213 8.69999 230.213 10.9V25.8H214.913V14.6C214.913 14.2 214.813 13.8 214.713 13.4C214.513 13 214.213 12.8 213.713 12.8H211.913C211.313 12.8 211.013 13 210.913 13.4C210.713 13.8 210.713 14.2 210.713 14.6V60.3C210.713 60.7 210.713 61.1 210.913 61.5C211.013 61.9 211.313 62.1 211.913 62.1H214.913V46.2H213.013ZM275.611 0.899999H266.811C265.111 0.899999 263.511 1.1 261.911 1.29999C260.311 1.5 259.011 2 257.811 2.69999C256.611 3.4 255.611 4.4 254.911 5.7C254.111 7 253.811 8.69999 253.811 10.9V29.2C253.811 31.6 254.311 33.6 255.511 35.1C256.711 36.7 258.111 38 259.911 39.1C261.611 40.3 263.511 41.3 265.511 42.2C267.511 43.2 269.311 44.2 270.911 45.3C271.311 45.7 271.811 46 272.311 46.4C272.811 46.8 273.111 47.2 273.311 47.8V60.3C273.311 60.7 273.211 61.1 273.111 61.5C272.911 61.9 272.611 62.1 272.111 62.1H270.311C269.711 62.1 269.411 61.9 269.311 61.5C269.111 61.1 269.111 60.7 269.111 60.3V49.1H253.811V64C253.811 66.2 254.111 68 254.911 69.3C255.611 70.7 256.611 71.7 257.811 72.4C259.011 73.1 260.311 73.5 261.911 73.7C263.511 73.9 265.111 74 266.811 74H275.611C277.211 74 278.811 73.9 280.411 73.7C282.011 73.5 283.411 73.1 284.611 72.4C285.811 71.7 286.711 70.7 287.511 69.3C288.211 68 288.611 66.2 288.611 64V45C288.611 43 287.911 41.2 286.611 39.6C285.311 38 283.711 36.6 281.911 35.4C280.111 34.2 278.211 33.1 276.211 32.1C274.211 31.1 272.611 30.2 271.211 29.2C270.811 29 270.411 28.8 269.911 28.4C269.311 28 269.111 27.6 269.111 27.1V14.6C269.111 14.2 269.111 13.8 269.311 13.4C269.411 13 269.711 12.8 270.311 12.8H272.111C272.611 12.8 272.911 13 273.111 13.4C273.211 13.8 273.311 14.2 273.311 14.6V25.8H288.611V10.9C288.611 8.69999 288.211 7 287.511 5.7C286.711 4.4 285.811 3.4 284.611 2.69999C283.411 2 282.011 1.5 280.411 1.29999C278.811 1.1 277.211 0.899999 275.611 0.899999ZM308.076 14.6V60.3C308.076 60.7 308.076 61.1 308.276 61.5C308.376 61.9 308.676 62.1 309.276 62.1H311.076C311.576 62.1 311.876 61.9 312.076 61.5C312.176 61.1 312.276 60.7 312.276 60.3V14.6C312.276 14.2 312.176 13.8 312.076 13.4C311.876 13 311.576 12.8 311.076 12.8H309.276C308.676 12.8 308.376 13 308.276 13.4C308.076 13.8 308.076 14.2 308.076 14.6ZM314.576 74H305.776C304.076 74 302.476 73.9 300.876 73.7C299.276 73.5 297.976 73.1 296.776 72.4C295.576 71.7 294.576 70.7 293.876 69.3C293.076 68 292.776 66.2 292.776 64V10.9C292.776 8.69999 293.076 7 293.876 5.7C294.576 4.4 295.576 3.4 296.776 2.69999C297.976 2 299.276 1.5 300.876 1.29999C302.476 1.1 304.076 0.899999 305.776 0.899999H314.576C316.176 0.899999 317.776 1.1 319.376 1.29999C320.976 1.5 322.376 2 323.576 2.69999C324.776 3.4 325.676 4.4 326.476 5.7C327.176 7 327.576 8.69999 327.576 10.9V64C327.576 66.2 327.176 68 326.476 69.3C325.676 70.7 324.776 71.7 323.576 72.4C322.376 73.1 320.976 73.5 319.376 73.7C317.776 73.9 316.176 74 314.576 74ZM347.041 14.6V60.3C347.041 60.7 347.041 61.1 347.241 61.5C347.341 61.9 347.641 62.1 348.241 62.1H350.041C350.541 62.1 350.841 61.9 351.041 61.5C351.141 61.1 351.241 60.7 351.241 60.3V14.6C351.241 14.2 351.141 13.8 351.041 13.4C350.841 13 350.541 12.8 350.041 12.8H348.241C347.641 12.8 347.341 13 347.241 13.4C347.041 13.8 347.041 14.2 347.041 14.6ZM353.541 74H344.741C343.041 74 341.441 73.9 339.841 73.7C338.241 73.5 336.941 73.1 335.741 72.4C334.541 71.7 333.541 70.7 332.841 69.3C332.041 68 331.741 66.2 331.741 64V10.9C331.741 8.69999 332.041 7 332.841 5.7C333.541 4.4 334.541 3.4 335.741 2.69999C336.941 2 338.241 1.5 339.841 1.29999C341.441 1.1 343.041 0.899999 344.741 0.899999H353.541C355.141 0.899999 356.741 1.1 358.341 1.29999C359.941 1.5 361.341 2 362.541 2.69999C363.741 3.4 364.641 4.4 365.441 5.7C366.141 7 366.541 8.69999 366.541 10.9V64C366.541 66.2 366.141 68 365.441 69.3C364.641 70.7 363.741 71.7 362.541 72.4C361.341 73.1 359.941 73.5 358.341 73.7C356.741 73.9 355.141 74 353.541 74ZM370.705 0.899999H389.905L395.205 37.2V0.899999H410.105V74H391.405L385.605 37.8V74H370.705V0.899999Z" fill="#FFE600"/>
</svg>
