<svg width="553" height="355" viewBox="0 0 553 355" fill="none" xmlns="http://www.w3.org/2000/svg">
<path d="M81.7202 199.432H57.3541V306.268H0V32.2426H81.7202C87.718 32.2426 93.7159 32.9923 99.7137 33.7421C105.711 34.4918 110.96 36.3661 115.458 38.9901C119.956 41.6142 123.33 45.3628 126.329 50.2361C128.953 55.1093 130.452 61.482 130.452 69.7289V161.945C130.452 170.192 128.953 176.94 126.329 181.813C123.33 187.061 119.956 190.81 115.458 193.434C110.96 196.058 105.711 197.557 99.7137 198.307C93.7159 199.057 87.718 199.432 81.7202 199.432ZM57.3541 76.8514V154.823H68.6C70.4743 154.823 71.5989 154.073 72.3486 152.574C72.7235 151.074 73.0984 149.575 73.0984 148.075V83.5989C73.0984 82.0994 72.7235 80.6 72.3486 79.1005C71.5989 77.6011 70.4743 76.8514 68.6 76.8514H57.3541Z" fill="white"/>
<path d="M237.289 306.268V32.2426H143.948V76.8514H179.934V133.831H143.948V178.439H179.934V261.659H143.948V306.268H237.289Z" fill="white"/>
<path d="M254.907 32.2426H326.881L346.749 168.318V32.2426H402.603V306.268H332.504L310.762 170.567V306.268H254.907V32.2426Z" fill="white"/>
<path d="M486.198 202.056V157.447H421.721V306.268H503.442C509.814 306.268 515.812 305.893 521.81 305.143C527.808 304.393 532.681 302.894 537.179 300.27C541.678 297.646 545.426 293.897 548.05 288.649C551.049 283.776 552.174 277.028 552.174 268.781V69.7289C552.174 61.482 551.049 55.1093 548.05 50.2361C545.426 45.3628 541.678 41.6142 537.179 38.9901C532.681 36.3661 527.808 34.4918 521.81 33.7421C515.812 32.9923 509.814 32.2426 503.442 32.2426H470.454C464.456 32.2426 458.458 32.9923 452.46 33.7421C446.462 34.4918 441.214 36.3661 436.716 38.9901C432.217 41.6142 428.844 45.3628 425.845 50.2361C423.221 55.1093 421.721 61.482 421.721 69.7289V125.584H479.075V83.5989C479.075 82.0994 479.45 80.6 479.825 79.1005C480.575 77.6011 481.699 76.8514 483.574 76.8514H490.321C492.57 76.8514 493.695 77.6011 494.07 79.1005C494.82 80.6 494.82 82.0994 494.82 83.5989V254.911C494.82 256.411 494.82 257.91 494.07 259.41C493.695 260.909 492.57 261.659 490.321 261.659H479.075V202.056H486.198Z" fill="white"/>
<line x1="145.821" y1="6" x2="395.112" y2="6" stroke="white" stroke-width="12"/>
<line x1="154.321" y1="346.5" x2="386.612" y2="346.5" stroke="white" stroke-width="17" stroke-linecap="round"/>
</svg>
